<?xml version="1.0" encoding="UTF-8" standalone="no"?>
<!-- Created with Inkscape (http://www.inkscape.org/) -->

<svg
   xmlns:dc="http://purl.org/dc/elements/1.1/"
   xmlns:cc="http://creativecommons.org/ns#"
   xmlns:rdf="http://www.w3.org/1999/02/22-rdf-syntax-ns#"
   xmlns:svg="http://www.w3.org/2000/svg"
   xmlns="http://www.w3.org/2000/svg"
   xmlns:sodipodi="http://sodipodi.sourceforge.net/DTD/sodipodi-0.dtd"
   xmlns:inkscape="http://www.inkscape.org/namespaces/inkscape"
   version="1.1"
   id="svg3713"
   xml:space="preserve"
   width="269.57932"
   height="211.71552"
   viewBox="0 0 107.83173 84.686205"
   sodipodi:docname="bags.svg"
   inkscape:version="0.92.4 (5da689c313, 2019-01-14)"><metadata
     id="metadata3719"><rdf:RDF><cc:Work
         rdf:about=""><dc:format>image/svg+xml</dc:format><dc:type
           rdf:resource="http://purl.org/dc/dcmitype/StillImage" /><dc:title></dc:title></cc:Work></rdf:RDF></metadata><defs
     id="defs3717"><clipPath
       clipPathUnits="userSpaceOnUse"
       id="clipPath3729"><path
         d="M 0,63.005 H 80.874 V 0 H 0 Z"
         id="path3727"
         inkscape:connector-curvature="0" /></clipPath></defs><sodipodi:namedview
     pagecolor="#ffffff"
     bordercolor="#666666"
     borderopacity="1"
     objecttolerance="10"
     gridtolerance="10"
     guidetolerance="10"
     inkscape:pageopacity="0"
     inkscape:pageshadow="2"
     inkscape:window-width="1920"
     inkscape:window-height="1027"
     id="namedview3715"
     showgrid="false"
     inkscape:zoom="2.5533567"
     inkscape:cx="126.76587"
     inkscape:cy="95.235331"
     inkscape:window-x="-8"
     inkscape:window-y="-8"
     inkscape:window-maximized="1"
     inkscape:current-layer="g3721"
     scale-x="0.4"
     fit-margin-bottom="1.7"
     fit-margin-top="0"
     fit-margin-left="0"
     fit-margin-right="0" /><g
     id="g3721"
     inkscape:groupmode="layer"
     inkscape:label="bags"
     transform="matrix(1.3333333,0,0,-1.3333333,-2.6666666e-4,84.006665)"><g
       id="g3723"><g
         id="g3725"
         clip-path="url(#clipPath3729)"><g
           id="g3731"
           transform="translate(6.1212,16.5963)"><path
             d="m 0,0 v 42.174 c 0,1.166 0.477,2.226 1.243,2.992 0.773,0.766 1.831,1.243 2.991,1.243 h 66.285 c 1.158,0 2.215,-0.476 2.985,-1.243 L 73.51,45.16 c 0.766,-0.769 1.243,-1.827 1.243,-2.986 V 1.746 c 0,-1.161 -0.477,-2.219 -1.243,-2.986 V -1.246 C 72.744,-2.012 71.685,-2.489 70.519,-2.489 H 40.737 v 3.176 h 29.782 c 0.289,0 0.553,0.12 0.746,0.312 0.193,0.189 0.312,0.455 0.312,0.747 v 40.428 c 0,0.293 -0.118,0.558 -0.306,0.747 l -0.006,0.006 c -0.189,0.188 -0.453,0.306 -0.746,0.306 H 4.234 c -0.293,0 -0.557,-0.118 -0.746,-0.306 V 42.921 C 3.296,42.729 3.176,42.463 3.176,42.174 V 0 Z"
             style="fill:#e03d3e;fill-opacity:1;fill-rule:nonzero;stroke:none"
             id="path3733"
             inkscape:connector-curvature="0" /></g><g
           id="g3735"
           transform="translate(49.7189,38.7003)"><path
             d="m 0,0 h -12.441 l 2.422,-10.217 h 7.596 z M 17.895,22.717 V -2.285 c 0,-1.155 -0.473,-2.206 -1.233,-2.965 -0.759,-0.759 -1.808,-1.231 -2.964,-1.231 H 1.725 l -1.639,-6.912 h -12.614 l -1.639,6.912 h -11.974 c -1.155,0 -2.205,0.472 -2.964,1.231 -0.759,0.759 -1.232,1.809 -1.232,2.965 v 25.002 h 3.176 V -2.285 c 0,-0.279 0.116,-0.534 0.302,-0.719 0.184,-0.185 0.44,-0.301 0.718,-0.301 h 11.221 l -1.537,6.481 h 2.008 18.465 L 2.478,-3.305 h 11.22 c 0.279,0 0.533,0.116 0.719,0.301 0.186,0.185 0.301,0.44 0.301,0.719 v 25.002 z"
             style="fill:#e03d3e;fill-opacity:1;fill-rule:nonzero;stroke:none"
             id="path3737"
             inkscape:connector-curvature="0" /></g><g
           id="g3739"
           transform="translate(2e-4,8.903)"><path
             d="m 0,0 c 6.41,-1.251 16.766,-3.282 20.357,-4.048 l 1.351,-0.29 c 4.689,-1.017 9.313,-2.02 13.592,-0.878 2.688,0.719 6.278,1.978 9.323,3.317 2.455,1.08 4.503,2.174 5.296,3 0.912,0.951 1.557,1.932 2.055,2.942 0.516,1.046 0.895,2.157 1.257,3.308 L 56.258,6.408 C 55.855,5.131 55.43,3.885 54.815,2.642 54.185,1.364 53.366,0.12 52.201,-1.095 51.095,-2.247 48.688,-3.576 45.9,-4.803 42.711,-6.205 38.944,-7.525 36.118,-8.28 31.097,-9.622 26.103,-8.538 21.038,-7.439 l -1.345,0.29 C 16.209,-6.406 6.416,-4.483 0,-3.23 Z"
             style="fill:#e03d3e;fill-opacity:1;fill-rule:nonzero;stroke:none"
             id="path3741"
             inkscape:connector-curvature="0" /></g><g
           id="g3743"
           transform="translate(2e-4,20.6359)"><path
             d="m 0,0 c 4.503,-1.353 14.462,-4.249 16.327,-3.98 0.652,0.093 1.182,0.567 1.786,1.107 1.345,1.204 2.933,2.625 6.651,2.916 2.917,0.229 7.794,0.396 12.102,0.412 3.669,0.012 6.935,-0.092 8.263,-0.372 1.6,-0.337 2.756,-1.245 3.35,-2.34 L 48.475,-2.26 c 0.344,-0.636 0.505,-1.333 0.465,-2.028 v -0.006 c -0.042,-0.711 -0.287,-1.409 -0.753,-2.026 -0.768,-1.018 -2.145,-1.814 -4.195,-2.003 -3.506,-0.324 -7.009,-0.282 -9.526,-0.252 -0.834,0.01 -1.559,0.018 -2.12,0.012 L 32.309,-5.4 c 0.597,0.007 1.34,-10e-4 2.194,-0.012 2.444,-0.029 5.846,-0.071 9.203,0.241 1.049,0.096 1.673,0.395 1.949,0.762 0.076,0.101 0.116,0.205 0.122,0.302 0.006,0.109 -0.023,0.226 -0.084,0.336 h -0.005 c -0.181,0.334 -0.593,0.624 -1.204,0.752 -1.117,0.235 -4.148,0.322 -7.618,0.311 C 32.713,-2.723 27.935,-2.891 25.012,-3.12 22.348,-3.329 21.196,-4.358 20.222,-5.23 19.233,-6.114 18.366,-6.891 16.773,-7.12 14.525,-7.442 5.03,-4.782 0,-3.301 Z"
             style="fill:#e03d3e;fill-opacity:1;fill-rule:nonzero;stroke:none"
             id="path3745"
             inkscape:connector-curvature="0" /></g><g
           id="g3747"
           transform="translate(32.9845,54.9366)"><path
             d="M 0,0 H -1.322 C -1.736,0 -1.866,-0.143 -1.866,-0.544 V -2.67 c 0,-1.322 0.169,-1.944 0.583,-3.279 h -0.104 c -0.415,0.985 -0.518,1.477 -1.089,2.372 l -2.125,3.318 C -4.718,-0.078 -4.847,0 -5.146,0 h -1.529 c -0.414,0 -0.556,-0.143 -0.556,-0.544 v -8.114 c 0,-0.402 0.142,-0.544 0.556,-0.544 h 1.31 c 0.414,0 0.556,0.142 0.556,0.544 v 2.113 c 0,1.439 -0.155,2.1 -0.427,3.344 h 0.104 c 0.35,-1.167 0.57,-1.776 1.14,-2.67 l 1.996,-3.072 c 0.117,-0.182 0.26,-0.259 0.531,-0.259 H 0 c 0.402,0 0.545,0.142 0.545,0.544 v 8.114 C 0.545,-0.143 0.402,0 0,0"
             style="fill:#e03d3e;fill-opacity:1;fill-rule:nonzero;stroke:none"
             id="path3749"
             inkscape:connector-curvature="0" /></g><g
           id="g3751"
           transform="translate(38.9357,50.7633)"><path
             d="m 0,0 0.479,-1.517 h -1.618 l 0.478,1.53 c 0.26,0.868 0.246,1.801 0.246,1.801 h 0.13 C -0.285,1.814 -0.259,0.881 0,0 M 4.106,-4.497 1.114,3.746 C 0.985,4.083 0.816,4.173 0.44,4.173 h -1.475 c -0.376,0 -0.544,-0.077 -0.674,-0.453 l -2.978,-8.217 c -0.13,-0.35 -0.052,-0.531 0.347,-0.531 h 1.361 c 0.648,0 0.817,0.142 0.947,0.544 l 0.298,0.933 H 1.062 L 1.36,-4.484 C 1.465,-4.886 1.659,-5.028 2.333,-5.028 H 3.73 c 0.389,0 0.505,0.181 0.376,0.531"
             style="fill:#e03d3e;fill-opacity:1;fill-rule:nonzero;stroke:none"
             id="path3753"
             inkscape:connector-curvature="0" /></g><g
           id="g3755"
           transform="translate(52.5802,54.9498)"><path
             d="M 0,0 H -1.296 C -1.724,0 -1.84,-0.065 -2.021,-0.415 L -4.16,-4.601 -6.299,-0.402 C -6.479,-0.078 -6.609,0 -7.062,0 h -1.219 c -0.415,0 -0.558,-0.13 -0.558,-0.545 v -8.139 c 0,-0.401 0.143,-0.531 0.558,-0.531 h 1.322 c 0.414,0 0.557,0.13 0.557,0.531 v 1.841 c 0,0.894 -0.065,1.542 -0.532,3.408 h 0.13 C -6.675,-3.889 -6.272,-5.081 -6,-5.573 l 0.765,-1.465 c 0.142,-0.285 0.272,-0.376 0.622,-0.376 h 0.868 c 0.349,0 0.479,0.117 0.622,0.376 l 0.726,1.465 c 0.272,0.531 0.738,1.711 0.868,2.138 h 0.142 c -0.492,-1.724 -0.57,-2.54 -0.57,-3.395 v -1.854 c 0,-0.401 0.13,-0.531 0.545,-0.531 H 0 c 0.415,0 0.558,0.13 0.558,0.531 v 8.139 C 0.558,-0.13 0.415,0 0,0"
             style="fill:#e03d3e;fill-opacity:1;fill-rule:nonzero;stroke:none"
             id="path3757"
             inkscape:connector-curvature="0" /></g><g
           id="g3759"
           transform="translate(60.422,54.9366)"><path
             d="m 0,0 h -5.431 c -0.415,0 -0.557,-0.143 -0.557,-0.544 v -8.114 c 0,-0.402 0.142,-0.544 0.557,-0.544 h 5.547 c 0.402,0 0.544,0.142 0.544,0.544 v 1.18 c 0,0.415 -0.142,0.544 -0.544,0.544 h -3.538 v 1.244 h 2.735 c 0.415,0 0.557,0.143 0.557,0.558 v 1.166 c 0,0.402 -0.142,0.545 -0.557,0.545 h -2.735 v 1.153 H 0 c 0.414,0 0.557,0.143 0.557,0.557 v 1.167 C 0.557,-0.143 0.414,0 0,0"
             style="fill:#e03d3e;fill-opacity:1;fill-rule:nonzero;stroke:none"
             id="path3761"
             inkscape:connector-curvature="0" /></g></g></g></g></svg>
