<?xml version="1.0" encoding="UTF-8" standalone="no"?>
<!-- Created with Inkscape (http://www.inkscape.org/) -->

<svg
   xmlns:dc="http://purl.org/dc/elements/1.1/"
   xmlns:cc="http://creativecommons.org/ns#"
   xmlns:rdf="http://www.w3.org/1999/02/22-rdf-syntax-ns#"
   xmlns:svg="http://www.w3.org/2000/svg"
   xmlns="http://www.w3.org/2000/svg"
   xmlns:sodipodi="http://sodipodi.sourceforge.net/DTD/sodipodi-0.dtd"
   xmlns:inkscape="http://www.inkscape.org/namespaces/inkscape"
   version="1.1"
   id="svg3773"
   xml:space="preserve"
   width="243.42133"
   height="223.66159"
   viewBox="0 0 121.71066 111.8308"
   sodipodi:docname="diaries.svg"
   inkscape:version="0.92.4 (5da689c313, 2019-01-14)"><metadata
     id="metadata3779"><rdf:RDF><cc:Work
         rdf:about=""><dc:format>image/svg+xml</dc:format><dc:type
           rdf:resource="http://purl.org/dc/dcmitype/StillImage" /><dc:title></dc:title></cc:Work></rdf:RDF></metadata><defs
     id="defs3777"><clipPath
       clipPathUnits="userSpaceOnUse"
       id="clipPath3789"><path
         d="M 0,83.236 H 91.283 V 0 H 0 Z"
         id="path3787"
         inkscape:connector-curvature="0" /></clipPath></defs><sodipodi:namedview
     pagecolor="#ffffff"
     bordercolor="#666666"
     borderopacity="1"
     objecttolerance="10"
     gridtolerance="10"
     guidetolerance="10"
     inkscape:pageopacity="0"
     inkscape:pageshadow="2"
     inkscape:window-width="1920"
     inkscape:window-height="1027"
     id="namedview3775"
     showgrid="false"
     scale-x="0.5"
     fit-margin-top="0"
     fit-margin-left="0"
     fit-margin-right="0"
     fit-margin-bottom="1.7"
     inkscape:zoom="7.7310582"
     inkscape:cx="60.855465"
     inkscape:cy="168.17251"
     inkscape:window-x="-8"
     inkscape:window-y="-8"
     inkscape:window-maximized="1"
     inkscape:current-layer="g3781" /><g
     id="g3781"
     inkscape:groupmode="layer"
     inkscape:label="diaries"
     transform="matrix(1.3333333,0,0,-1.3333333,0,110.9808)"><g
       id="g3783"><g
         id="g3785"
         clip-path="url(#clipPath3789)"><path
           d="M 39.299,8.824 H 2.585 V 5.796 H 39.299 Z M 7.362,19.336 h 25.771 c 2.786,0 5.8,-0.989 8.016,-2.707 1.081,-0.838 1.981,-1.848 2.592,-3.005 -0.431,1.569 -1.294,3.044 -2.445,4.195 -1.784,1.784 -4.174,2.785 -6.699,2.785 H 7.362 Z m 0,-3.895 h 13.212 c 0.714,0 1.292,-0.578 1.292,-1.292 0,-0.714 -0.578,-1.293 -1.292,-1.293 H 7.362 v -1.081 h 32.736 c -3.187,1.181 -6.315,1.14 -9.317,1.101 l -1.673,-0.02 c -0.713,0 -1.293,0.579 -1.293,1.293 0,0.714 0.58,1.292 1.293,1.292 0.929,0 1.283,0.006 1.643,0.01 2.781,0.037 5.662,0.074 8.651,-0.733 -1.752,1.292 -4.091,2.033 -6.269,2.033 H 7.362 Z M 51.984,5.795 H 88.698 V 8.823 H 51.984 Z m 31.937,13.541 v 1.268 H 56.687 c -2.609,0 -4.979,-1.065 -6.694,-2.78 -1.154,-1.154 -2.018,-2.626 -2.45,-4.2 0.61,1.157 1.51,2.167 2.592,3.005 2.216,1.718 5.229,2.707 8.016,2.707 z m 0,-3.895 v 1.31 h -25.77 c -2.178,0 -4.518,-0.741 -6.27,-2.033 2.99,0.807 5.87,0.77 8.651,0.733 0.361,-0.004 7.745,-0.01 8.674,-0.01 0.713,0 1.293,-0.578 1.293,-1.292 0,-0.714 -0.58,-1.293 -1.293,-1.293 l -8.704,0.02 c -3.002,0.039 -6.13,0.08 -9.316,-1.101 h 32.735 v 1.081 h -8.317 c -0.713,0 -1.292,0.579 -1.292,1.293 0,0.714 0.579,1.292 1.292,1.292 z M 49.399,9.19 H 41.885 V 5.101 c 0.574,-1.52 2.028,-2.516 3.652,-2.516 1.939,0 3.577,1.412 3.859,3.331 z M 4.777,11.409 v 2.74 9.041 h 2.749 21.965 c -1.811,0.334 -3.68,0.604 -5.533,0.87 -6.848,0.986 -13.5,1.945 -17.08,6.043 -0.468,0.536 -0.414,1.349 0.122,1.818 0.535,0.468 1.349,0.414 1.817,-0.121 2.949,-3.376 9.136,-4.267 15.504,-5.184 2.847,-0.411 5.729,-0.826 8.433,-1.47 -1.186,0.514 -2.401,1.002 -3.607,1.487 -7.45,2.996 -14.624,5.882 -14.796,13.841 -0.014,0.711 0.551,1.299 1.262,1.313 0.711,0.014 1.299,-0.551 1.313,-1.262 0.135,-6.252 6.534,-8.826 13.18,-11.498 6.418,-2.581 13.044,-5.247 15.536,-11.341 2.492,6.094 9.117,8.76 15.535,11.341 6.646,2.672 13.045,5.246 13.18,11.498 0.015,0.711 0.602,1.276 1.313,1.262 0.711,-0.014 1.276,-0.602 1.263,-1.313 C 76.761,32.515 69.586,29.629 62.136,26.633 60.93,26.148 59.715,25.66 58.529,25.146 c 2.704,0.644 5.586,1.059 8.433,1.47 6.368,0.917 12.555,1.808 15.504,5.184 0.469,0.535 1.283,0.589 1.818,0.121 0.535,-0.469 0.59,-1.282 0.121,-1.818 -3.58,-4.098 -10.232,-5.057 -17.079,-6.043 -1.853,-0.266 -3.722,-0.536 -5.533,-0.87 h 21.964 2.75 v -9.041 -2.74 h 4.776 v -8.2 H 51.131 C 49.97,1.231 47.841,0 45.537,0 43.238,0 41.104,1.231 39.946,3.209 H 0 v 8.2 z"
           style="fill:#e03d3e;fill-opacity:1;fill-rule:nonzero;stroke:none"
           id="path3791"
           inkscape:connector-curvature="0" /><g
           id="g3793"
           transform="translate(67.1123,73.9906)"><path
             d="m 0,0 c -5.476,3.96 -13.065,6.411 -21.471,6.411 -8.405,0 -15.995,-2.451 -21.471,-6.411 -5.345,-3.866 -8.651,-9.167 -8.651,-14.985 0,-5.288 2.732,-10.149 7.241,-13.89 4.687,-3.889 11.266,-6.569 18.719,-7.304 l 0.708,-0.07 3.454,-5.712 3.454,5.712 0.708,0.07 c 7.454,0.735 14.033,3.415 18.72,7.304 4.508,3.741 7.24,8.602 7.24,13.89 C 8.651,-9.167 5.345,-3.866 0,0 m -21.471,9.245 c 9.013,0 17.193,-2.657 23.132,-6.953 6.07,-4.39 9.825,-10.496 9.825,-17.277 0,-6.179 -3.12,-11.798 -8.271,-16.072 -4.947,-4.106 -11.797,-6.968 -19.535,-7.858 l -5.151,-8.518 -5.151,8.518 c -7.738,0.89 -14.587,3.752 -19.535,7.858 -5.151,4.274 -8.27,9.893 -8.27,16.072 0,6.781 3.754,12.887 9.824,17.277 5.939,4.296 14.119,6.953 23.132,6.953"
             style="fill:#e03d3e;fill-opacity:1;fill-rule:nonzero;stroke:none"
             id="path3795"
             inkscape:connector-curvature="0" /></g><g
           id="g3797"
           transform="translate(32.5361,59.9222)"><path
             d="M 0,0 H -1.378 V 2.046 H 0 c 0.654,0 1.044,-0.417 1.044,-1.03 C 1.044,0.403 0.654,0 0,0 m 0.306,4.482 h -3.842 c -0.445,0 -0.598,-0.153 -0.598,-0.585 v -8.713 c 0,-0.432 0.153,-0.585 0.598,-0.585 h 1.573 c 0.445,0 0.585,0.153 0.585,0.585 v 2.38 h 1.712 c 2.158,0 3.563,1.239 3.563,3.438 0,2.214 -1.419,3.48 -3.591,3.48"
             style="fill:#e03d3e;fill-opacity:1;fill-rule:nonzero;stroke:none"
             id="path3799"
             inkscape:connector-curvature="0" /></g><g
           id="g3801"
           transform="translate(39.5796,64.4041)"><path
             d="m 0,0 h -1.573 c -0.446,0 -0.598,-0.153 -0.598,-0.584 v -8.714 c 0,-0.432 0.152,-0.585 0.598,-0.585 h 5.512 c 0.432,0 0.585,0.153 0.585,0.585 v 1.266 c 0,0.446 -0.153,0.585 -0.585,0.585 H 0.584 v 6.863 C 0.584,-0.153 0.445,0 0,0"
             style="fill:#e03d3e;fill-opacity:1;fill-rule:nonzero;stroke:none"
             id="path3803"
             inkscape:connector-curvature="0" /></g><g
           id="g3805"
           transform="translate(49.3672,59.9222)"><path
             d="m 0,0 0.515,-1.628 h -1.738 l 0.514,1.642 c 0.278,0.932 0.264,1.935 0.264,1.935 h 0.139 C -0.306,1.949 -0.278,0.946 0,0 M 4.411,-4.83 1.197,4.023 C 1.058,4.385 0.877,4.482 0.474,4.482 h -1.585 c -0.404,0 -0.585,-0.083 -0.724,-0.487 L -5.034,-4.83 c -0.139,-0.376 -0.056,-0.571 0.373,-0.571 h 1.462 c 0.696,0 0.877,0.153 1.016,0.585 l 0.32,1.002 h 3.005 l 0.32,-1.002 c 0.111,-0.432 0.32,-0.585 1.044,-0.585 h 1.501 c 0.417,0 0.543,0.195 0.404,0.571"
             style="fill:#e03d3e;fill-opacity:1;fill-rule:nonzero;stroke:none"
             id="path3807"
             inkscape:connector-curvature="0" /></g><g
           id="g3809"
           transform="translate(62.2964,64.4041)"><path
             d="m 0,0 h -1.419 c -0.446,0 -0.585,-0.153 -0.585,-0.584 v -2.283 c 0,-1.42 0.181,-2.088 0.626,-3.522 h -0.111 c -0.446,1.058 -0.557,1.587 -1.17,2.547 l -2.282,3.564 C -5.066,-0.083 -5.206,0 -5.526,0 h -1.642 c -0.446,0 -0.599,-0.153 -0.599,-0.584 v -8.714 c 0,-0.432 0.153,-0.585 0.599,-0.585 h 1.405 c 0.446,0 0.599,0.153 0.599,0.585 v 2.269 c 0,1.545 -0.167,2.255 -0.46,3.591 h 0.112 c 0.376,-1.252 0.613,-1.907 1.225,-2.868 l 2.143,-3.298 c 0.126,-0.195 0.279,-0.279 0.571,-0.279 H 0 c 0.432,0 0.585,0.153 0.585,0.585 v 8.714 C 0.585,-0.153 0.432,0 0,0"
             style="fill:#e03d3e;fill-opacity:1;fill-rule:nonzero;stroke:none"
             id="path3811"
             inkscape:connector-curvature="0" /></g></g></g></g></svg>
