<?xml version="1.0" encoding="UTF-8" standalone="no"?>
<!-- Created with Inkscape (http://www.inkscape.org/) -->

<svg
   xmlns:dc="http://purl.org/dc/elements/1.1/"
   xmlns:cc="http://creativecommons.org/ns#"
   xmlns:rdf="http://www.w3.org/1999/02/22-rdf-syntax-ns#"
   xmlns:svg="http://www.w3.org/2000/svg"
   xmlns="http://www.w3.org/2000/svg"
   xmlns:sodipodi="http://sodipodi.sourceforge.net/DTD/sodipodi-0.dtd"
   xmlns:inkscape="http://www.inkscape.org/namespaces/inkscape"
   version="1.1"
   id="svg3821"
   xml:space="preserve"
   width="215.9196"
   height="221.70267"
   viewBox="0 0 107.9598 110.85133"
   sodipodi:docname="diplomas.svg"
   inkscape:version="0.92.4 (5da689c313, 2019-01-14)"><metadata
     id="metadata3827"><rdf:RDF><cc:Work
         rdf:about=""><dc:format>image/svg+xml</dc:format><dc:type
           rdf:resource="http://purl.org/dc/dcmitype/StillImage" /><dc:title></dc:title></cc:Work></rdf:RDF></metadata><defs
     id="defs3825"><clipPath
       clipPathUnits="userSpaceOnUse"
       id="clipPath3837"><path
         d="M 0,82.501 H 80.97 V 0 H 0 Z"
         id="path3835"
         inkscape:connector-curvature="0" /></clipPath></defs><sodipodi:namedview
     pagecolor="#ffffff"
     bordercolor="#666666"
     borderopacity="1"
     objecttolerance="10"
     gridtolerance="10"
     guidetolerance="10"
     inkscape:pageopacity="0"
     inkscape:pageshadow="2"
     inkscape:window-width="1920"
     inkscape:window-height="1027"
     id="namedview3823"
     showgrid="false"
     scale-x="0.5"
     fit-margin-top="0"
     fit-margin-left="0"
     fit-margin-right="0"
     fit-margin-bottom="1.7"
     inkscape:zoom="7.7998956"
     inkscape:cx="53.979801"
     inkscape:cy="166.7021"
     inkscape:window-x="-8"
     inkscape:window-y="-8"
     inkscape:window-maximized="1"
     inkscape:current-layer="g3829" /><g
     id="g3829"
     inkscape:groupmode="layer"
     inkscape:label="diplomas"
     transform="matrix(1.3333333,0,0,-1.3333333,0,110.00133)"><g
       id="g3831"><g
         id="g3833"
         clip-path="url(#clipPath3837)"><g
           id="g3839"
           transform="translate(56.4346,38.506)"><path
             d="m 0,0 c -1.523,1.524 -3.635,2.467 -5.972,2.467 -2.332,0 -4.444,-0.945 -5.971,-2.473 h -0.006 c -1.525,-1.524 -2.468,-3.635 -2.468,-5.972 0,-2.332 0.945,-4.443 2.474,-5.971 1.527,-1.528 3.639,-2.474 5.971,-2.474 2.337,0 4.449,0.944 5.972,2.468 v 0.006 c 1.528,1.528 2.474,3.639 2.474,5.971 0,2.337 -0.944,4.448 -2.468,5.972 z m -3.434,-3.439 c -0.648,0.648 -1.546,1.051 -2.538,1.051 -0.993,0 -1.891,-0.401 -2.541,-1.049 -0.645,-0.651 -1.048,-1.549 -1.048,-2.541 0,-0.993 0.401,-1.891 1.048,-2.541 0.65,-0.648 1.548,-1.048 2.541,-1.048 0.992,0 1.89,0.402 2.538,1.051 0.651,0.647 1.051,1.545 1.051,2.538 0,0.992 -0.401,1.89 -1.051,2.539 m -2.538,3.982 c 1.8,0 3.432,-0.73 4.612,-1.91 1.179,-1.179 1.91,-2.811 1.91,-4.611 0,-1.795 -0.731,-3.424 -1.91,-4.605 v -0.006 c -1.18,-1.179 -2.812,-1.91 -4.612,-1.91 -1.796,0 -3.424,0.731 -4.604,1.91 l -0.006,0.006 c -1.18,1.181 -1.91,2.81 -1.91,4.605 0,1.8 0.73,3.432 1.91,4.611 h 0.006 c 1.18,1.18 2.808,1.91 4.604,1.91 M -36.46,-6.434 c -0.877,0 -1.588,0.711 -1.588,1.588 0,0.876 0.711,1.588 1.588,1.588 h 14.802 c 0.877,0 1.589,-0.712 1.589,-1.588 0,-0.877 -0.712,-1.588 -1.589,-1.588 z m 0,7.304 c -0.877,0 -1.588,0.712 -1.588,1.588 0,0.876 0.711,1.588 1.588,1.588 h 14.802 c 0.877,0 1.589,-0.712 1.589,-1.588 0,-0.876 -0.712,-1.588 -1.589,-1.588 z m 0,7.304 c -0.877,0 -1.588,0.712 -1.588,1.588 0,0.877 0.711,1.588 1.588,1.588 h 32.643 c 0.877,0 1.588,-0.711 1.588,-1.588 0,-0.876 -0.711,-1.588 -1.588,-1.588 z m 0,7.305 c -0.877,0 -1.588,0.711 -1.588,1.587 0,0.877 0.711,1.588 1.588,1.588 h 32.643 c 0.877,0 1.588,-0.711 1.588,-1.588 0,-0.876 -0.711,-1.587 -1.588,-1.587 z m 0,7.303 c -0.877,0 -1.588,0.712 -1.588,1.589 0,0.876 0.711,1.587 1.588,1.587 h 32.643 c 0.877,0 1.588,-0.711 1.588,-1.587 0,-0.877 -0.711,-1.589 -1.588,-1.589 z M 11.275,38.637 C 10.709,37.56 10.488,36.166 10.415,34.659 H 21.59 c 0.025,3.414 -1.096,6.036 -4.903,6.377 -2.064,0.173 -4.382,-0.442 -5.412,-2.399 M -1.063,-26.277 v 10.036 c -1.488,-0.714 -3.152,-1.113 -4.909,-1.113 -1.427,0 -2.794,0.264 -4.053,0.744 v -2.041 h 6.83 l 0.039,-1.426 c 0.049,-1.801 0.49,-3.383 1.188,-4.743 0.265,-0.516 0.57,-1.002 0.905,-1.457 m -4.872,4.441 c -0.389,-0.171 -0.732,-0.393 -1.02,-0.662 -0.628,-0.586 -0.997,-1.417 -0.997,-2.403 l -0.004,-3.43 h 4.782 c -0.519,0.669 -0.989,1.396 -1.392,2.183 -0.663,1.288 -1.142,2.727 -1.369,4.312 m -10.952,0.253 c -0.713,-0.167 -1.32,-0.482 -1.783,-0.915 -0.628,-0.586 -0.998,-1.417 -0.998,-2.403 v -9.374 l 4.527,1.667 4.241,-1.635 0.016,9.342 c 0,1.244 0.33,2.369 0.924,3.318 z m -5.713,-6.748 v 3.43 c 0,1.244 0.33,2.369 0.924,3.318 h -31.827 v -0.885 c 0,-1.613 0.659,-3.08 1.721,-4.143 1.062,-1.061 2.529,-1.72 4.142,-1.72 h 6.256 z m 14.631,-10.175 -7.187,2.772 -7.444,-2.741 v 7.212 h -18.784 -6.256 c -2.416,0 -4.613,0.99 -6.207,2.582 l -0.006,0.006 c -1.591,1.594 -2.582,3.791 -2.582,6.207 v 3.817 h 1.466 4.503 v 51.348 c 0,3.092 1.264,5.9 3.3,7.935 2.031,2.032 4.843,3.295 7.938,3.297 l 54.324,0.049 c 0.637,0.031 1.256,0.021 1.848,-0.033 2.05,-0.186 3.801,-0.883 5.121,-2.178 1.309,-1.283 2.149,-3.11 2.381,-5.553 0.071,-0.74 0.166,-2.447 -0.015,-4.486 H 10.383 v -54.196 c 0,-3.439 -0.652,-5.619 -2.412,-7.031 -1.668,-1.337 -4.158,-1.764 -7.921,-1.764 H -3.578 -7.96 Z m 1.997,43.905 c 3.135,0 5.977,-1.274 8.038,-3.333 L 2.073,2.061 c 2.058,-2.062 3.332,-4.904 3.332,-8.039 0,-3.14 -1.274,-5.985 -3.332,-8.044 l -0.205,-0.199 v -14.071 c 2.062,0.101 3.444,0.409 4.271,1.072 0.957,0.768 1.312,2.255 1.312,4.752 v 55.629 c 0,2.452 0.197,4.862 1.237,6.839 0.195,0.371 0.416,0.723 0.666,1.053 l -48.582,-0.044 c -2.278,-0.002 -4.356,-0.94 -5.866,-2.449 -1.505,-1.506 -2.44,-3.581 -2.44,-5.863 v -51.348 h 34.577 v 3.694 c -0.373,0.29 -0.726,0.602 -1.059,0.935 -2.058,2.059 -3.333,4.904 -3.333,8.044 0,3.136 1.276,5.98 3.336,8.042 2.055,2.061 4.901,3.335 8.041,3.335"
             style="fill:#e03d3e;fill-opacity:1;fill-rule:nonzero;stroke:none"
             id="path3841"
             inkscape:connector-curvature="0" /></g></g></g></g></svg>
