<?xml version="1.0" encoding="UTF-8" standalone="no"?>
<!-- Created with Inkscape (http://www.inkscape.org/) -->

<svg
   xmlns:dc="http://purl.org/dc/elements/1.1/"
   xmlns:cc="http://creativecommons.org/ns#"
   xmlns:rdf="http://www.w3.org/1999/02/22-rdf-syntax-ns#"
   xmlns:svg="http://www.w3.org/2000/svg"
   xmlns="http://www.w3.org/2000/svg"
   xmlns:sodipodi="http://sodipodi.sourceforge.net/DTD/sodipodi-0.dtd"
   xmlns:inkscape="http://www.inkscape.org/namespaces/inkscape"
   version="1.1"
   id="svg3851"
   xml:space="preserve"
   width="170.66055"
   height="218.05087"
   viewBox="0 0 74.578662 95.288231"
   sodipodi:docname="document-covers.svg"
   inkscape:version="0.92.4 (5da689c313, 2019-01-14)"><metadata
     id="metadata3857"><rdf:RDF><cc:Work
         rdf:about=""><dc:format>image/svg+xml</dc:format><dc:type
           rdf:resource="http://purl.org/dc/dcmitype/StillImage" /><dc:title></dc:title></cc:Work></rdf:RDF></metadata><defs
     id="defs3855"><clipPath
       clipPathUnits="userSpaceOnUse"
       id="clipPath3867"><path
         d="M 0,70.909 H 55.935 V 0 H 0 Z"
         id="path3865"
         inkscape:connector-curvature="0" /></clipPath></defs><sodipodi:namedview
     pagecolor="#ffffff"
     bordercolor="#666666"
     borderopacity="1"
     objecttolerance="10"
     gridtolerance="10"
     guidetolerance="10"
     inkscape:pageopacity="0"
     inkscape:pageshadow="2"
     inkscape:window-width="1920"
     inkscape:window-height="1027"
     id="namedview3853"
     showgrid="false"
     scale-x="0.3"
     fit-margin-top="0"
     fit-margin-left="0"
     fit-margin-right="0"
     fit-margin-bottom="1.7"
     inkscape:zoom="9.074986"
     inkscape:cx="90.679243"
     inkscape:cy="170.7784"
     inkscape:window-x="-8"
     inkscape:window-y="-8"
     inkscape:window-maximized="1"
     inkscape:current-layer="g3859" /><g
     id="g3859"
     inkscape:groupmode="layer"
     inkscape:label="document-covers"
     transform="matrix(1.3333333,0,0,-1.3333333,-7.9999998e-4,94.545331)"><g
       id="g3861"><g
         id="g3863"
         clip-path="url(#clipPath3867)"><g
           id="g3869"
           transform="translate(50.8346,61.474)"><path
             d="m 0,0 v -49.871 c 0,-1.934 -0.78,-3.759 -2.037,-5.139 -1.254,-1.378 -2.996,-2.322 -4.922,-2.495 l -42.391,-3.834 31.275,2.829 h 15.486 c 1.334,0 2.547,0.546 3.427,1.427 0.881,0.879 1.428,2.093 1.428,3.427 V -4.1 c 0,1.334 -0.547,2.548 -1.428,3.428 C 0.585,-0.419 0.304,-0.193 0,0 m -49.544,5.572 42.33,3.829 c 0.253,0.023 0.464,0.034 0.634,0.034 1.723,0 3.282,-0.641 4.454,-1.715 1.164,-1.068 1.937,-2.565 2.092,-4.287 0.009,-0.102 0.017,-0.2 0.022,-0.29 C 1.071,2.755 2.044,2.13 2.843,1.332 4.235,-0.061 5.1,-1.983 5.1,-4.1 v -49.556 c 0,-2.116 -0.865,-4.039 -2.257,-5.431 -1.393,-1.393 -3.317,-2.258 -5.432,-2.258 h -46.823 l -1.422,-0.129 V 5.455 Z M -2.835,2.905 V 2.912 L -2.89,3.505 c -0.147,0.853 -0.562,1.592 -1.152,2.134 -0.657,0.602 -1.545,0.962 -2.538,0.962 -0.163,0 -0.291,-0.004 -0.379,-0.012 L -48,2.876 v -61.258 l 40.786,3.689 c 1.192,0.108 2.285,0.708 3.085,1.588 0.798,0.876 1.295,2.026 1.295,3.234 V 2.792 Z"
             style="fill:#e03d3e;fill-opacity:1;fill-rule:nonzero;stroke:none"
             id="path3871"
             inkscape:connector-curvature="0" /></g><g
           id="g3873"
           transform="translate(14.776,55.4115)"><path
             d="M 0,0 H -1.322 C -1.737,0 -1.866,-0.143 -1.866,-0.544 V -2.67 c 0,-1.322 0.168,-1.944 0.583,-3.279 h -0.104 c -0.415,0.985 -0.518,1.477 -1.088,2.372 l -2.126,3.318 C -4.717,-0.078 -4.847,0 -5.146,0 h -1.529 c -0.414,0 -0.557,-0.143 -0.557,-0.544 v -8.114 c 0,-0.402 0.143,-0.544 0.557,-0.544 h 1.309 c 0.415,0 0.558,0.142 0.558,0.544 v 2.113 c 0,1.439 -0.156,2.1 -0.428,3.344 h 0.104 c 0.35,-1.167 0.57,-1.776 1.14,-2.67 l 1.996,-3.072 c 0.117,-0.182 0.259,-0.259 0.532,-0.259 H 0 c 0.402,0 0.544,0.142 0.544,0.544 v 8.114 C 0.544,-0.143 0.402,0 0,0"
             style="fill:#e03d3e;fill-opacity:1;fill-rule:nonzero;stroke:none"
             id="path3875"
             inkscape:connector-curvature="0" /></g><g
           id="g3877"
           transform="translate(20.7271,51.2382)"><path
             d="m 0,0 0.479,-1.517 h -1.618 l 0.478,1.53 c 0.259,0.868 0.246,1.801 0.246,1.801 h 0.13 C -0.285,1.814 -0.259,0.881 0,0 M 4.106,-4.497 1.114,3.746 C 0.985,4.083 0.816,4.173 0.44,4.173 h -1.475 c -0.376,0 -0.544,-0.077 -0.673,-0.453 l -2.979,-8.217 c -0.13,-0.35 -0.052,-0.531 0.347,-0.531 h 1.361 c 0.648,0 0.816,0.142 0.946,0.544 l 0.298,0.933 H 1.062 L 1.361,-4.484 C 1.464,-4.886 1.659,-5.028 2.333,-5.028 H 3.73 c 0.389,0 0.505,0.181 0.376,0.531"
             style="fill:#e03d3e;fill-opacity:1;fill-rule:nonzero;stroke:none"
             id="path3879"
             inkscape:connector-curvature="0" /></g><g
           id="g3881"
           transform="translate(34.3722,55.4247)"><path
             d="m 0,0 h -1.296 c -0.428,0 -0.545,-0.065 -0.726,-0.415 l -2.139,-4.186 -2.138,4.199 C -6.48,-0.078 -6.61,0 -7.063,0 h -1.219 c -0.414,0 -0.557,-0.13 -0.557,-0.545 v -8.139 c 0,-0.401 0.143,-0.531 0.557,-0.531 h 1.322 c 0.415,0 0.558,0.13 0.558,0.531 v 1.841 c 0,0.894 -0.065,1.542 -0.532,3.408 h 0.13 c 0.129,-0.454 0.531,-1.646 0.803,-2.138 l 0.765,-1.465 c 0.142,-0.285 0.272,-0.376 0.622,-0.376 h 0.868 c 0.35,0 0.48,0.117 0.622,0.376 l 0.726,1.465 c 0.273,0.531 0.739,1.711 0.869,2.138 h 0.142 c -0.492,-1.724 -0.57,-2.54 -0.57,-3.395 v -1.854 c 0,-0.401 0.129,-0.531 0.544,-0.531 H 0 c 0.415,0 0.557,0.13 0.557,0.531 v 8.139 C 0.557,-0.13 0.415,0 0,0"
             style="fill:#e03d3e;fill-opacity:1;fill-rule:nonzero;stroke:none"
             id="path3883"
             inkscape:connector-curvature="0" /></g><g
           id="g3885"
           transform="translate(42.213,55.4115)"><path
             d="m 0,0 h -5.43 c -0.415,0 -0.558,-0.143 -0.558,-0.544 v -8.114 c 0,-0.402 0.143,-0.544 0.558,-0.544 h 5.547 c 0.402,0 0.544,0.142 0.544,0.544 v 1.18 c 0,0.415 -0.142,0.544 -0.544,0.544 h -3.538 v 1.244 h 2.734 c 0.415,0 0.558,0.143 0.558,0.558 v 1.166 c 0,0.402 -0.143,0.545 -0.558,0.545 h -2.734 v 1.153 H 0 c 0.415,0 0.557,0.143 0.557,0.557 v 1.167 C 0.557,-0.143 0.415,0 0,0"
             style="fill:#e03d3e;fill-opacity:1;fill-rule:nonzero;stroke:none"
             id="path3887"
             inkscape:connector-curvature="0" /></g></g></g></g></svg>
