<?xml version="1.0" encoding="UTF-8" standalone="no"?>
<svg
   xmlns:dc="http://purl.org/dc/elements/1.1/"
   xmlns:cc="http://creativecommons.org/ns#"
   xmlns:rdf="http://www.w3.org/1999/02/22-rdf-syntax-ns#"
   xmlns:svg="http://www.w3.org/2000/svg"
   xmlns="http://www.w3.org/2000/svg"
   xml:space="preserve"
   viewBox="0 0 19.999999 19.999999"
   height="20"
   width="20"
   y="0px"
   x="0px"
   id="Capa_1"
   version="1.1"><metadata
   id="metadata44"><rdf:RDF><cc:Work
       rdf:about=""><dc:format>image/svg+xml</dc:format><dc:type
         rdf:resource="http://purl.org/dc/dcmitype/StillImage" /><dc:title></dc:title></cc:Work></rdf:RDF></metadata><defs
   id="defs42" />
<g
   transform="matrix(0.03120909,0,0,0.03118887,0.36591619,0.11879038)"
   id="g7">
	<g
   id="_x35__40_">
		<g
   id="g4">
			<path
   style="fill:#111111;stroke-width:1.01183879"
   id="path2"
   d="m 293.47888,316.85479 c 0.60304,-7.46972 -1.75347,-15.09934 -7.6994,-20.8012 L 41.319453,60.92078 c -10.795022,-10.373784 -28.276112,-10.373784 -39.0711341,0 -10.7960527,10.374777 -10.7960527,27.191332 0,37.591931 L 229.25509,316.85479 2.2483189,535.19787 c -10.7960527,10.37378 -10.7960527,27.19033 0,37.56511 10.7960531,10.37378 28.2771431,10.37378 39.0711341,0 L 285.78052,337.63017 c 5.94489,-5.70186 8.2746,-13.30367 7.69836,-20.77538 z M 617.28933,296.05359 317.5646,7.7805879 c -10.79605,-10.3737839 -28.27715,-10.3737839 -39.07217,0 -10.79605,10.3747771 -10.79605,27.2171541 0,37.5651151 L 560.7639,316.85479 278.4914,588.33806 c -10.79605,10.37477 -10.79605,27.19034 0,37.59193 10.79605,10.37478 28.27715,10.37478 39.07217,0 L 617.26046,337.65798 c 5.94592,-5.70186 8.27461,-13.33148 7.67156,-20.8022 0.63191,-7.47071 -1.7246,-15.10033 -7.64269,-20.80219 z" />
		</g>
	</g>
</g>
<g
   transform="translate(0,-618.06201)"
   id="g9">
</g>
<g
   transform="translate(0,-618.06201)"
   id="g11">
</g>
<g
   transform="translate(0,-618.06201)"
   id="g13">
</g>
<g
   transform="translate(0,-618.06201)"
   id="g15">
</g>
<g
   transform="translate(0,-618.06201)"
   id="g17">
</g>
<g
   transform="translate(0,-618.06201)"
   id="g19">
</g>
<g
   transform="translate(0,-618.06201)"
   id="g21">
</g>
<g
   transform="translate(0,-618.06201)"
   id="g23">
</g>
<g
   transform="translate(0,-618.06201)"
   id="g25">
</g>
<g
   transform="translate(0,-618.06201)"
   id="g27">
</g>
<g
   transform="translate(0,-618.06201)"
   id="g29">
</g>
<g
   transform="translate(0,-618.06201)"
   id="g31">
</g>
<g
   transform="translate(0,-618.06201)"
   id="g33">
</g>
<g
   transform="translate(0,-618.06201)"
   id="g35">
</g>
<g
   transform="translate(0,-618.06201)"
   id="g37">
</g>
</svg>