<?xml version="1.0" encoding="UTF-8" standalone="no"?>
<!-- Generator: Adobe Illustrator 16.0.0, SVG Export Plug-In . SVG Version: 6.00 Build 0)  -->

<svg
   xmlns:dc="http://purl.org/dc/elements/1.1/"
   xmlns:cc="http://creativecommons.org/ns#"
   xmlns:rdf="http://www.w3.org/1999/02/22-rdf-syntax-ns#"
   xmlns:svg="http://www.w3.org/2000/svg"
   xmlns="http://www.w3.org/2000/svg"
   xmlns:sodipodi="http://sodipodi.sourceforge.net/DTD/sodipodi-0.dtd"
   xmlns:inkscape="http://www.inkscape.org/namespaces/inkscape"
   version="1.1"
   id="Layer_1"
   x="0px"
   y="0px"
   width="57"
   height="57"
   viewBox="0 0 56.999999 56.999999"
   xml:space="preserve"
   sodipodi:docname="logo-instagram.svg"
   inkscape:version="0.92.4 (5da689c313, 2019-01-14)"><metadata
   id="metadata913"><rdf:RDF><cc:Work
       rdf:about=""><dc:format>image/svg+xml</dc:format><dc:type
         rdf:resource="http://purl.org/dc/dcmitype/StillImage" /><dc:title></dc:title></cc:Work></rdf:RDF></metadata><defs
   id="defs911" /><sodipodi:namedview
   pagecolor="#ffffff"
   bordercolor="#666666"
   borderopacity="1"
   objecttolerance="10"
   gridtolerance="10"
   guidetolerance="10"
   inkscape:pageopacity="0"
   inkscape:pageshadow="2"
   inkscape:window-width="1920"
   inkscape:window-height="1027"
   id="namedview909"
   showgrid="false"
   inkscape:snap-page="true"
   fit-margin-top="0"
   fit-margin-left="0"
   fit-margin-right="0"
   fit-margin-bottom="0"
   inkscape:zoom="11.864951"
   inkscape:cx="28.5"
   inkscape:cy="29.414366"
   inkscape:window-x="-8"
   inkscape:window-y="-8"
   inkscape:window-maximized="1"
   inkscape:current-layer="Layer_1"><inkscape:grid
     type="xygrid"
     id="grid915"
     originx="0"
     originy="-96.749276" /></sodipodi:namedview>
<g
   id="g876"
   transform="scale(0.33615463,0.33615736)">
	<path
   d="M 122.406,0 H 46.654 C 20.929,0 0,20.93 0,46.655 v 75.752 c 0,25.726 20.929,46.655 46.654,46.655 h 75.752 c 25.727,0 46.656,-20.93 46.656,-46.655 V 46.655 C 169.063,20.93 148.133,0 122.406,0 Z m 31.657,122.407 c 0,17.455 -14.201,31.655 -31.656,31.655 H 46.654 C 29.2,154.063 15,139.862 15,122.407 V 46.655 C 15,29.201 29.2,15 46.654,15 h 75.752 c 17.455,0 31.656,14.201 31.656,31.655 v 75.752 z"
   id="path870"
   inkscape:connector-curvature="0"
   style="fill:#e03d3e" />
	<path
   d="m 84.531,40.97 c -24.021,0 -43.563,19.542 -43.563,43.563 0,24.02 19.542,43.561 43.563,43.561 24.021,0 43.563,-19.541 43.563,-43.561 0,-24.021 -19.542,-43.563 -43.563,-43.563 z m 0,72.123 c -15.749,0 -28.563,-12.812 -28.563,-28.561 0,-15.75 12.813,-28.563 28.563,-28.563 15.75,0 28.563,12.813 28.563,28.563 0,15.749 -12.814,28.561 -28.563,28.561 z"
   id="path872"
   inkscape:connector-curvature="0"
   style="fill:#e03d3e" />
	<path
   d="m 129.921,28.251 c -2.89,0 -5.729,1.17 -7.77,3.22 -2.051,2.04 -3.23,4.88 -3.23,7.78 0,2.891 1.18,5.73 3.23,7.78 2.04,2.04 4.88,3.22 7.77,3.22 2.9,0 5.73,-1.18 7.78,-3.22 2.05,-2.05 3.22,-4.89 3.22,-7.78 0,-2.9 -1.17,-5.74 -3.22,-7.78 -2.04,-2.05 -4.88,-3.22 -7.78,-3.22 z"
   id="path874"
   inkscape:connector-curvature="0"
   style="fill:#e03d3e" />
</g>
<g
   id="g878"
   transform="translate(0,-15.313825)">
</g>
<g
   id="g880"
   transform="translate(0,-15.313825)">
</g>
<g
   id="g882"
   transform="translate(0,-15.313825)">
</g>
<g
   id="g884"
   transform="translate(0,-15.313825)">
</g>
<g
   id="g886"
   transform="translate(0,-15.313825)">
</g>
<g
   id="g888"
   transform="translate(0,-15.313825)">
</g>
<g
   id="g890"
   transform="translate(0,-15.313825)">
</g>
<g
   id="g892"
   transform="translate(0,-15.313825)">
</g>
<g
   id="g894"
   transform="translate(0,-15.313825)">
</g>
<g
   id="g896"
   transform="translate(0,-15.313825)">
</g>
<g
   id="g898"
   transform="translate(0,-15.313825)">
</g>
<g
   id="g900"
   transform="translate(0,-15.313825)">
</g>
<g
   id="g902"
   transform="translate(0,-15.313825)">
</g>
<g
   id="g904"
   transform="translate(0,-15.313825)">
</g>
<g
   id="g906"
   transform="translate(0,-15.313825)">
</g>
</svg>