<?xml version="1.0" encoding="UTF-8" standalone="no"?>
<svg
   xmlns:dc="http://purl.org/dc/elements/1.1/"
   xmlns:cc="http://creativecommons.org/ns#"
   xmlns:rdf="http://www.w3.org/1999/02/22-rdf-syntax-ns#"
   xmlns:svg="http://www.w3.org/2000/svg"
   xmlns="http://www.w3.org/2000/svg"
   xmlns:sodipodi="http://sodipodi.sourceforge.net/DTD/sodipodi-0.dtd"
   xmlns:inkscape="http://www.inkscape.org/namespaces/inkscape"
   viewBox="0 -62 80.846729 61.876404"
   version="1.1"
   id="svg4930"
   sodipodi:docname="logo-youtube.svg"
   width="80.846733"
   height="61.876404"
   inkscape:version="0.92.4 (5da689c313, 2019-01-14)">
  <metadata
     id="metadata4936">
    <rdf:RDF>
      <cc:Work
         rdf:about="">
        <dc:format>image/svg+xml</dc:format>
        <dc:type
           rdf:resource="http://purl.org/dc/dcmitype/StillImage" />
        <dc:title></dc:title>
      </cc:Work>
    </rdf:RDF>
  </metadata>
  <defs
     id="defs4934" />
  <sodipodi:namedview
     pagecolor="#ffffff"
     bordercolor="#666666"
     borderopacity="1"
     objecttolerance="10"
     gridtolerance="10"
     guidetolerance="10"
     inkscape:pageopacity="0"
     inkscape:pageshadow="2"
     inkscape:window-width="1920"
     inkscape:window-height="1027"
     id="namedview4932"
     showgrid="false"
     fit-margin-top="0"
     fit-margin-left="0"
     fit-margin-right="0"
     fit-margin-bottom="0"
     inkscape:zoom="9.4796503"
     inkscape:cx="34.144815"
     inkscape:cy="35.286083"
     inkscape:window-x="-8"
     inkscape:window-y="-8"
     inkscape:window-maximized="1"
     inkscape:current-layer="svg4930" />
  <g
     id="g4940"
     transform="matrix(0.15790257,0,0,0.15955876,0,-62)">
    <path
       id="path4926"
       d="M 334.80859,170.99219 221.69531,109.10156 c -6.5039,-3.55859 -14.1914,-3.42578 -20.5664,0.35157 -6.37891,3.78125 -10.1836,10.46093 -10.1836,17.875 v 122.71874 c 0,7.37891 3.78125,14.04688 10.11719,17.83204 3.30859,1.97656 6.97656,2.96875 10.65234,2.96875 3.36719,0 6.74219,-0.83203 9.84766,-2.50391 l 113.11719,-60.82422 c 6.71484,-3.61328 10.90625,-10.59375 10.9375,-18.22265 0.0273,-7.62891 -4.11328,-14.64063 -10.8086,-18.30469 z m -113.85937,63.61718 v -91.71875 l 84.53906,46.25782 z m 0,0"
       inkscape:connector-curvature="0"
       style="fill:#e03d3e" />
    <path
       id="path4928"
       d="m 508.23437,91.527344 -0.0234,-0.234375 c -0.4336,-4.121094 -4.75,-40.777344 -22.57032,-59.421875 C 465.04297,9.941406 441.69141,7.277344 430.46094,6 429.53125,5.894531 428.67969,5.796875 427.91797,5.695312 l -0.89453,-0.09375 C 359.33594,0.679688 257.11328,0.0078125 256.08984,0.00390625 L 256,0 255.91016,0.00390625 C 254.88672,0.0078125 152.66406,0.679688 84.367188,5.601562 l -0.902344,0.09375 C 82.738281,5.792969 81.9375,5.882812 81.066406,5.984375 69.964844,7.265625 46.863281,9.933594 26.207031,32.65625 9.234375,51.101562 4.328125,86.972656 3.824219,91.003906 L 3.765625,91.527344 C 3.613281,93.242188 0,134.06641 0,175.05078 v 38.3125 c 0,40.98438 3.613281,81.80859 3.765625,83.52734 l 0.027344,0.25782 c 0.433593,4.05468 4.746093,40.03906 22.484375,58.6914 19.367187,21.19532 43.855468,24 57.027344,25.50782 2.082031,0.23828 3.875,0.4414 5.097656,0.65625 l 1.183594,0.16406 c 39.082032,3.71875 161.617182,5.55078 166.812502,5.625 l 0.15625,0.004 0.15625,-0.004 c 1.02343,-0.004 103.24218,-0.67578 170.92968,-5.59766 l 0.89454,-0.0937 c 0.85546,-0.11328 1.8164,-0.21484 2.87109,-0.32422 11.03906,-1.17187 34.01562,-3.60547 54.38672,-26.01953 16.97265,-18.44922 21.88281,-54.32031 22.38281,-58.34765 l 0.0586,-0.52344 c 0.15235,-1.71875 3.76954,-42.53906 3.76954,-83.52344 v -38.3125 C 512,134.06641 508.38672,93.246094 508.23437,91.527344 Z M 481.99609,213.36328 c 0,37.93359 -3.3125,77 -3.625,80.58594 -1.27343,9.8789 -6.44922,32.57422 -14.71875,41.5625 -12.75,14.02734 -25.84765,15.41797 -35.41015,16.42969 -1.15625,0.12109 -2.22657,0.23828 -3.19532,0.35937 -65.46875,4.73438 -163.83203,5.46094 -168.36328,5.48828 -5.08203,-0.0742 -125.82422,-1.92187 -163.71484,-5.4414 -1.941406,-0.31641 -4.039062,-0.5586 -6.25,-0.8086 -11.214844,-1.28515 -26.566406,-3.04297 -38.371094,-16.02734 l -0.277344,-0.29688 c -8.125,-8.46484 -13.152343,-29.6875 -14.429687,-41.14843 -0.238281,-2.71094 -3.636719,-42.23829 -3.636719,-80.70313 v -38.3125 c 0,-37.89062 3.304688,-76.914061 3.625,-80.574218 C 35.148438,82.839844 40.421875,61.519531 48.347656,52.902344 61.488281,38.449219 75.34375,36.847656 84.507812,35.789062 85.382812,35.6875 86.199219,35.59375 86.953125,35.496094 153.375,30.738281 252.44531,30.03125 256,30.003906 c 3.55469,0.02344 102.58984,0.734375 168.42187,5.492188 0.8086,0.101562 1.69141,0.203125 2.64063,0.3125 9.42578,1.074218 23.67187,2.699218 36.74609,16.644531 l 0.1211,0.128906 c 8.125,8.464844 13.15234,30.058594 14.42968,41.75 0.22657,2.558594 3.63672,42.171879 3.63672,80.718749 z m 0,0"
       inkscape:connector-curvature="0"
       style="fill:#e03d3e" />
  </g>
</svg>
