<?xml version="1.0" encoding="UTF-8" standalone="no"?>
<!-- Generator: Adobe Illustrator 19.0.0, SVG Export Plug-In . SVG Version: 6.00 Build 0)  -->

<svg
   xmlns:dc="http://purl.org/dc/elements/1.1/"
   xmlns:cc="http://creativecommons.org/ns#"
   xmlns:rdf="http://www.w3.org/1999/02/22-rdf-syntax-ns#"
   xmlns:svg="http://www.w3.org/2000/svg"
   xmlns="http://www.w3.org/2000/svg"
   xmlns:sodipodi="http://sodipodi.sourceforge.net/DTD/sodipodi-0.dtd"
   xmlns:inkscape="http://www.inkscape.org/namespaces/inkscape"
   version="1.1"
   id="Layer_1"
   x="0px"
   y="0px"
   viewBox="0 0 69 61"
   xml:space="preserve"
   sodipodi:docname="logo-telegram.svg"
   width="69"
   height="61"
   inkscape:version="0.92.4 (5da689c313, 2019-01-14)"><metadata
   id="metadata4762"><rdf:RDF><cc:Work
       rdf:about=""><dc:format>image/svg+xml</dc:format><dc:type
         rdf:resource="http://purl.org/dc/dcmitype/StillImage" /><dc:title></dc:title></cc:Work></rdf:RDF></metadata><defs
   id="defs4760" /><sodipodi:namedview
   pagecolor="#ffffff"
   bordercolor="#666666"
   borderopacity="1"
   objecttolerance="10"
   gridtolerance="10"
   guidetolerance="10"
   inkscape:pageopacity="0"
   inkscape:pageshadow="2"
   inkscape:window-width="1920"
   inkscape:window-height="1027"
   id="namedview4758"
   showgrid="false"
   inkscape:zoom="6.703125"
   inkscape:cx="-12.073626"
   inkscape:cy="38.444636"
   inkscape:window-x="-8"
   inkscape:window-y="-8"
   inkscape:window-maximized="1"
   inkscape:current-layer="Layer_1" />


<g
   id="g4775"
   transform="matrix(0.13432402,0,0,0.13498743,0.14894365,56.741192)"><g
     transform="translate(0,-451)"
     id="g4713">
	<g
   id="g4711">
		<g
   id="g4709">
			<path
   style="fill:#e03d3e"
   inkscape:connector-curvature="0"
   id="path4705"
   d="m 385.268,121.919 -210.569,129.69 c -11.916,7.356 -17.555,21.885 -13.716,35.323 l 22.768,80 c 1.945,6.821 8.015,11.355 14.999,11.355 0.389,0 0.782,-0.014 1.176,-0.043 7.466,-0.542 13.374,-6.103 14.367,-13.515 l 5.92,-43.866 c 0.798,-5.902 3.642,-11.392 8.001,-15.45 L 401.979,143.889 c 5.251,-4.869 5.945,-12.842 1.618,-18.545 -4.334,-5.708 -12.209,-7.184 -18.329,-3.425 z M 214.32,290.478 c -7.808,7.268 -12.895,17.089 -14.323,27.655 l -2.871,21.278 -16.527,-58.072 c -1.343,-4.704 0.635,-9.791 4.805,-12.365 l 154.258,-95.007 z" />
			<path
   style="fill:#e03d3e"
   inkscape:connector-curvature="0"
   id="path4707"
   d="m 503.67,37.382 c -6.579,-5.576 -15.657,-7.111 -23.698,-4.005 L 15.08,212.719 C 5.873,216.27 -0.047,224.939 0,234.804 c 0.048,9.874 6.055,18.495 15.316,21.965 l 108.59,40.529 42.359,136.225 c 2.326,7.489 8.197,13.308 15.703,15.566 7.502,2.256 15.604,0.643 21.66,-4.31 l 63.14,-51.473 c 3.032,-2.472 7.362,-2.594 10.528,-0.295 l 113.883,82.681 c 4.097,2.978 8.932,4.511 13.823,4.511 2.865,0 5.749,-0.526 8.517,-1.596 7.486,-2.895 12.93,-9.312 14.56,-17.163 L 511.508,60.135 c 1.752,-8.45 -1.251,-17.168 -7.838,-22.753 z M 491.536,55.99 408.108,457.298 c -0.302,1.45 -1.346,2.053 -1.942,2.284 -0.6,0.232 -1.785,0.489 -2.997,-0.393 L 289.282,376.504 c -5.091,-3.696 -11.077,-5.531 -17.052,-5.531 -6.518,0 -13.027,2.185 -18.347,6.519 l -63.154,51.485 c -1.124,0.92 -2.291,0.756 -2.885,0.577 -0.598,-0.18 -1.665,-0.69 -2.099,-2.086 L 141.9,286.462 c -0.937,-3.013 -3.217,-5.423 -6.173,-6.527 L 22.462,237.662 c -1.696,-0.635 -2.057,-1.958 -2.062,-2.957 -0.005,-0.99 0.343,-2.307 2.023,-2.955 L 487.316,52.409 c 0.002,-10e-4 0.005,-0.002 0.008,-0.003 1.51,-0.583 2.627,0.087 3.159,0.537 0.534,0.455 1.384,1.455 1.053,3.047 z" />
		</g>
	</g>
</g><g
     transform="translate(0,-451)"
     id="g4719">
	<g
   id="g4717">
		<path
   style="fill:#e03d3e"
   inkscape:connector-curvature="0"
   id="path4715"
   d="m 427.481,252.142 c -5.506,-1.196 -10.936,2.299 -12.131,7.804 l -1.55,7.14 c -1.195,5.505 2.299,10.936 7.804,12.131 0.729,0.158 1.456,0.234 2.174,0.234 4.695,0 8.92,-3.262 9.958,-8.037 l 1.55,-7.14 c 1.194,-5.505 -2.301,-10.936 -7.805,-12.132 z" />
	</g>
</g><g
     transform="translate(0,-451)"
     id="g4725">
	<g
   id="g4723">
		<path
   style="fill:#e03d3e"
   inkscape:connector-curvature="0"
   id="path4721"
   d="m 417.281,299.122 c -5.512,-1.195 -10.938,2.299 -12.132,7.804 L 381.69,414.977 c -1.195,5.505 2.299,10.936 7.803,12.131 0.73,0.158 1.457,0.234 2.174,0.234 4.696,0 8.92,-3.262 9.958,-8.037 l 23.459,-108.052 c 1.195,-5.505 -2.299,-10.936 -7.803,-12.131 z" />
	</g>
</g></g>
<g
   id="g4727"
   transform="translate(0,-451)">
</g>
<g
   id="g4729"
   transform="translate(0,-451)">
</g>
<g
   id="g4731"
   transform="translate(0,-451)">
</g>
<g
   id="g4733"
   transform="translate(0,-451)">
</g>
<g
   id="g4735"
   transform="translate(0,-451)">
</g>
<g
   id="g4737"
   transform="translate(0,-451)">
</g>
<g
   id="g4739"
   transform="translate(0,-451)">
</g>
<g
   id="g4741"
   transform="translate(0,-451)">
</g>
<g
   id="g4743"
   transform="translate(0,-451)">
</g>
<g
   id="g4745"
   transform="translate(0,-451)">
</g>
<g
   id="g4747"
   transform="translate(0,-451)">
</g>
<g
   id="g4749"
   transform="translate(0,-451)">
</g>
<g
   id="g4751"
   transform="translate(0,-451)">
</g>
<g
   id="g4753"
   transform="translate(0,-451)">
</g>
<g
   id="g4755"
   transform="translate(0,-451)">
</g>
</svg>